<svg width="279" height="74" viewBox="0 0 279 74" fill="none" xmlns="http://www.w3.org/2000/svg">
<circle cx="37" cy="33" r="15" fill="url(#paint0_linear_1_4)" stroke="url(#paint1_linear_1_4)" stroke-width="2"/>
<path d="M82.26 25.644V41H79.18V31.012L75.066 41H72.734L68.598 31.012V41H65.518V25.644H69.016L73.9 37.062L78.784 25.644H82.26ZM84.5131 34.862C84.5131 33.63 84.7551 32.5373 85.2391 31.584C85.7378 30.6307 86.4051 29.8973 87.2411 29.384C88.0918 28.8707 89.0378 28.614 90.0791 28.614C90.9884 28.614 91.7804 28.7973 92.4551 29.164C93.1444 29.5307 93.6944 29.9927 94.1051 30.55V28.812H97.2071V41H94.1051V39.218C93.7091 39.79 93.1591 40.2667 92.4551 40.648C91.7658 41.0147 90.9664 41.198 90.0571 41.198C89.0304 41.198 88.0918 40.934 87.2411 40.406C86.4051 39.878 85.7378 39.1373 85.2391 38.184C84.7551 37.216 84.5131 36.1087 84.5131 34.862ZM94.1051 34.906C94.1051 34.158 93.9584 33.52 93.6651 32.992C93.3718 32.4493 92.9758 32.0387 92.4771 31.76C91.9784 31.4667 91.4431 31.32 90.8711 31.32C90.2991 31.32 89.7711 31.4593 89.2871 31.738C88.8031 32.0167 88.4071 32.4273 88.0991 32.97C87.8058 33.498 87.6591 34.1287 87.6591 34.862C87.6591 35.5953 87.8058 36.2407 88.0991 36.798C88.4071 37.3407 88.8031 37.7587 89.2871 38.052C89.7858 38.3453 90.3138 38.492 90.8711 38.492C91.4431 38.492 91.9784 38.3527 92.4771 38.074C92.9758 37.7807 93.3718 37.37 93.6651 36.842C93.9584 36.2993 94.1051 35.654 94.1051 34.906ZM106.969 28.636C108.421 28.636 109.595 29.098 110.489 30.022C111.384 30.9313 111.831 32.2073 111.831 33.85V41H108.751V34.268C108.751 33.3 108.509 32.5593 108.025 32.046C107.541 31.518 106.881 31.254 106.045 31.254C105.195 31.254 104.52 31.518 104.021 32.046C103.537 32.5593 103.295 33.3 103.295 34.268V41H100.215V28.812H103.295V30.33C103.706 29.802 104.227 29.3913 104.857 29.098C105.503 28.79 106.207 28.636 106.969 28.636ZM126.266 28.812V41H123.164V39.46C122.768 39.988 122.248 40.406 121.602 40.714C120.972 41.0073 120.282 41.154 119.534 41.154C118.581 41.154 117.738 40.956 117.004 40.56C116.271 40.1493 115.692 39.5553 115.266 38.778C114.856 37.986 114.65 37.0473 114.65 35.962V28.812H117.73V35.522C117.73 36.49 117.972 37.238 118.456 37.766C118.94 38.2793 119.6 38.536 120.436 38.536C121.287 38.536 121.954 38.2793 122.438 37.766C122.922 37.238 123.164 36.49 123.164 35.522V28.812H126.266ZM140.635 34.642C140.635 35.082 140.606 35.478 140.547 35.83H131.637C131.71 36.71 132.018 37.3993 132.561 37.898C133.104 38.3967 133.771 38.646 134.563 38.646C135.707 38.646 136.521 38.1547 137.005 37.172H140.327C139.975 38.3453 139.3 39.3133 138.303 40.076C137.306 40.824 136.081 41.198 134.629 41.198C133.456 41.198 132.4 40.9413 131.461 40.428C130.537 39.9 129.811 39.1593 129.283 38.206C128.77 37.2527 128.513 36.1527 128.513 34.906C128.513 33.6447 128.77 32.5373 129.283 31.584C129.796 30.6307 130.515 29.8973 131.439 29.384C132.363 28.8707 133.426 28.614 134.629 28.614C135.788 28.614 136.822 28.8633 137.731 29.362C138.655 29.8607 139.366 30.572 139.865 31.496C140.378 32.4053 140.635 33.454 140.635 34.642ZM137.445 33.762C137.43 32.97 137.144 32.3393 136.587 31.87C136.03 31.386 135.348 31.144 134.541 31.144C133.778 31.144 133.133 31.3787 132.605 31.848C132.092 32.3027 131.776 32.9407 131.659 33.762H137.445ZM145.963 24.72V41H142.883V24.72H145.963ZM157.328 25.644V41H154.248V25.644H157.328ZM167.126 28.636C168.578 28.636 169.751 29.098 170.646 30.022C171.54 30.9313 171.988 32.2073 171.988 33.85V41H168.908V34.268C168.908 33.3 168.666 32.5593 168.182 32.046C167.698 31.518 167.038 31.254 166.202 31.254C165.351 31.254 164.676 31.518 164.178 32.046C163.694 32.5593 163.452 33.3 163.452 34.268V41H160.372V28.812H163.452V30.33C163.862 29.802 164.383 29.3913 165.014 29.098C165.659 28.79 166.363 28.636 167.126 28.636ZM174.124 34.862C174.124 33.63 174.366 32.5373 174.85 31.584C175.349 30.6307 176.024 29.8973 176.874 29.384C177.725 28.8707 178.671 28.614 179.712 28.614C180.504 28.614 181.26 28.79 181.978 29.142C182.697 29.4793 183.269 29.934 183.694 30.506V24.72H186.818V41H183.694V39.196C183.313 39.7973 182.778 40.2813 182.088 40.648C181.399 41.0147 180.6 41.198 179.69 41.198C178.664 41.198 177.725 40.934 176.874 40.406C176.024 39.878 175.349 39.1373 174.85 38.184C174.366 37.216 174.124 36.1087 174.124 34.862ZM183.716 34.906C183.716 34.158 183.57 33.52 183.276 32.992C182.983 32.4493 182.587 32.0387 182.088 31.76C181.59 31.4667 181.054 31.32 180.482 31.32C179.91 31.32 179.382 31.4593 178.898 31.738C178.414 32.0167 178.018 32.4273 177.71 32.97C177.417 33.498 177.27 34.1287 177.27 34.862C177.27 35.5953 177.417 36.2407 177.71 36.798C178.018 37.3407 178.414 37.7587 178.898 38.052C179.397 38.3453 179.925 38.492 180.482 38.492C181.054 38.492 181.59 38.3527 182.088 38.074C182.587 37.7807 182.983 37.37 183.276 36.842C183.57 36.2993 183.716 35.654 183.716 34.906ZM201.333 28.812V41H198.231V39.46C197.835 39.988 197.314 40.406 196.669 40.714C196.038 41.0073 195.349 41.154 194.601 41.154C193.647 41.154 192.804 40.956 192.071 40.56C191.337 40.1493 190.758 39.5553 190.333 38.778C189.922 37.986 189.717 37.0473 189.717 35.962V28.812H192.797V35.522C192.797 36.49 193.039 37.238 193.523 37.766C194.007 38.2793 194.667 38.536 195.503 38.536C196.353 38.536 197.021 38.2793 197.505 37.766C197.989 37.238 198.231 36.49 198.231 35.522V28.812H201.333ZM209.036 41.198C208.038 41.198 207.144 41.022 206.352 40.67C205.56 40.3033 204.929 39.812 204.46 39.196C204.005 38.58 203.756 37.898 203.712 37.15H206.814C206.872 37.6193 207.1 38.008 207.496 38.316C207.906 38.624 208.412 38.778 209.014 38.778C209.6 38.778 210.055 38.6607 210.378 38.426C210.715 38.1913 210.884 37.8907 210.884 37.524C210.884 37.128 210.678 36.8347 210.268 36.644C209.872 36.4387 209.234 36.2187 208.354 35.984C207.444 35.764 206.696 35.5367 206.11 35.302C205.538 35.0673 205.039 34.708 204.614 34.224C204.203 33.74 203.998 33.0873 203.998 32.266C203.998 31.5913 204.188 30.9753 204.57 30.418C204.966 29.8607 205.523 29.4207 206.242 29.098C206.975 28.7753 207.833 28.614 208.816 28.614C210.268 28.614 211.426 28.9807 212.292 29.714C213.157 30.4327 213.634 31.408 213.722 32.64H210.774C210.73 32.156 210.524 31.7747 210.158 31.496C209.806 31.2027 209.329 31.056 208.728 31.056C208.17 31.056 207.738 31.1587 207.43 31.364C207.136 31.5693 206.99 31.8553 206.99 32.222C206.99 32.6327 207.195 32.948 207.606 33.168C208.016 33.3733 208.654 33.586 209.52 33.806C210.4 34.026 211.126 34.2533 211.698 34.488C212.27 34.7227 212.761 35.0893 213.172 35.588C213.597 36.072 213.817 36.7173 213.832 37.524C213.832 38.228 213.634 38.8587 213.238 39.416C212.856 39.9733 212.299 40.4133 211.566 40.736C210.847 41.044 210.004 41.198 209.036 41.198ZM219.946 31.342V37.238C219.946 37.6487 220.041 37.9493 220.232 38.14C220.437 38.316 220.774 38.404 221.244 38.404H222.674V41H220.738C218.142 41 216.844 39.7387 216.844 37.216V31.342H215.392V28.812H216.844V25.798H219.946V28.812H222.674V31.342H219.946ZM227.969 30.704C228.365 30.0587 228.878 29.5527 229.509 29.186C230.154 28.8193 230.888 28.636 231.709 28.636V31.87H230.895C229.927 31.87 229.194 32.0973 228.695 32.552C228.211 33.0067 227.969 33.7987 227.969 34.928V41H224.889V28.812H227.969V30.704ZM235.346 27.36C234.803 27.36 234.348 27.1913 233.982 26.854C233.63 26.502 233.454 26.0693 233.454 25.556C233.454 25.0427 233.63 24.6173 233.982 24.28C234.348 23.928 234.803 23.752 235.346 23.752C235.888 23.752 236.336 23.928 236.688 24.28C237.054 24.6173 237.238 25.0427 237.238 25.556C237.238 26.0693 237.054 26.502 236.688 26.854C236.336 27.1913 235.888 27.36 235.346 27.36ZM236.864 28.812V41H233.784V28.812H236.864ZM251.237 34.642C251.237 35.082 251.207 35.478 251.149 35.83H242.239C242.312 36.71 242.62 37.3993 243.163 37.898C243.705 38.3967 244.373 38.646 245.165 38.646C246.309 38.646 247.123 38.1547 247.607 37.172H250.929C250.577 38.3453 249.902 39.3133 248.905 40.076C247.907 40.824 246.683 41.198 245.231 41.198C244.057 41.198 243.001 40.9413 242.063 40.428C241.139 39.9 240.413 39.1593 239.885 38.206C239.371 37.2527 239.115 36.1527 239.115 34.906C239.115 33.6447 239.371 32.5373 239.885 31.584C240.398 30.6307 241.117 29.8973 242.041 29.384C242.965 28.8707 244.028 28.614 245.231 28.614C246.389 28.614 247.423 28.8633 248.333 29.362C249.257 29.8607 249.968 30.572 250.467 31.496C250.98 32.4053 251.237 33.454 251.237 34.642ZM248.047 33.762C248.032 32.97 247.746 32.3393 247.189 31.87C246.631 31.386 245.949 31.144 245.143 31.144C244.38 31.144 243.735 31.3787 243.207 31.848C242.693 32.3027 242.378 32.9407 242.261 33.762H248.047Z" fill="white"/>
<g filter="url(#filter0_d_1_4)">
<rect x="30" y="26" width="3" height="14" fill="white"/>
<rect x="35" y="26" width="3" height="14" fill="white"/>
<rect x="40" y="31" width="3" height="9" fill="white"/>
<rect x="40" y="26" width="3" height="3" fill="white"/>
</g>
<defs>
<filter id="filter0_d_1_4" x="0" y="0" width="73" height="74" filterUnits="userSpaceOnUse" color-interpolation-filters="sRGB">
<feFlood flood-opacity="0" result="BackgroundImageFix"/>
<feColorMatrix in="SourceAlpha" type="matrix" values="0 0 0 0 0 0 0 0 0 0 0 0 0 0 0 0 0 0 127 0" result="hardAlpha"/>
<feOffset dy="4"/>
<feGaussianBlur stdDeviation="15"/>
<feComposite in2="hardAlpha" operator="out"/>
<feColorMatrix type="matrix" values="0 0 0 0 0.933333 0 0 0 0 0.298039 0 0 0 0 0.858824 0 0 0 0.5 0"/>
<feBlend mode="normal" in2="BackgroundImageFix" result="effect1_dropShadow_1_4"/>
<feBlend mode="normal" in="SourceGraphic" in2="effect1_dropShadow_1_4" result="shape"/>
</filter>
<linearGradient id="paint0_linear_1_4" x1="18" y1="17" x2="109.5" y2="90" gradientUnits="userSpaceOnUse">
<stop stop-color="#0B50DE"/>
<stop offset="0.91154" stop-color="#5CA7FA"/>
</linearGradient>
<linearGradient id="paint1_linear_1_4" x1="13.5" y1="24" x2="38" y2="50" gradientUnits="userSpaceOnUse">
<stop stop-color="#0078FE"/>
<stop offset="1" stop-color="#5CA7FA"/>
</linearGradient>
</defs>
</svg>
